<svg xmlns="http://www.w3.org/2000/svg" xmlns:xlink="http://www.w3.org/1999/xlink" height="800" width="1200" version="1.0" viewBox="-76.17645 -128.1515 660.1959 768.909"><defs><linearGradient id="b"><stop offset="0" stop-color="#411f5d"/><stop offset="1" stop-color="#5b2a85"/></linearGradient><linearGradient id="a"><stop offset="0" stop-color="#8381c5"/><stop offset=".566" stop-color="#7e55b3" stop-opacity=".996"/><stop offset="1" stop-color="#a52ecb" stop-opacity=".992"/></linearGradient><linearGradient xlink:href="#a" id="d" gradientUnits="userSpaceOnUse" gradientTransform="matrix(.87386 0 0 .82818 244.806 249.69)" spreadMethod="pad" x1="-122.202" y1="-161.851" x2="236.614" y2="300.74"/><linearGradient xlink:href="#b" id="e" gradientUnits="userSpaceOnUse" gradientTransform="translate(1.833 1.934) scale(.98685)" x1="447.809" y1="396.607" x2="173.945" y2="66.018"/><filter id="c" x="-.045" width="1.089" y="-.044" height="1.088" color-interpolation-filters="sRGB"><feGaussianBlur stdDeviation="8.785"/></filter></defs><path transform="translate(1.833 1.934) scale(.98685)" d="M491.67 257.76c0 131.794-105.76 238.634-236.222 238.634S19.226 389.554 19.226 257.759c0-131.794 105.76-238.635 236.222-238.635 130.461 0 236.221 106.84 236.221 238.635z" opacity=".405" fill="#211f46" fill-opacity=".996" stroke="#0a0b1b" stroke-width="8.533" filter="url(#c)"/><path d="M487.037 256.303c0 130.061-104.37 235.497-233.115 235.497-128.746 0-233.116-105.436-233.116-235.497S125.176 20.806 253.922 20.806c128.745 0 233.115 105.436 233.115 235.497z" fill="url(#d)" stroke="url(#e)" stroke-width="13.338"/><path d="M173.799 421.719s19.738 1.396 45.131-.842c10.283-.906 49.327-4.74 78.517-11.142 0 0 35.59-7.617 54.63-14.634C372 387.76 382.841 381.528 387.72 372.7c-.212-1.81 1.503-8.225-7.685-12.078-23.488-9.852-50.73-8.07-104.633-9.213-59.778-2.054-79.663-12.06-90.256-20.118-10.158-8.176-5.05-30.793 38.474-50.715 21.925-10.61 107.87-30.187 107.87-30.187-28.944-14.308-82.918-39.46-94.013-44.89-9.73-4.764-25.303-11.936-28.678-20.614-3.827-8.331 9.038-15.507 16.225-17.563 23.144-6.676 55.818-10.825 85.554-11.29 14.948-.235 17.374-1.197 17.374-1.197 20.624-3.42 34.201-17.531 28.544-39.878-5.078-22.81-31.861-36.214-57.313-31.574-23.969 4.37-81.738 21.15-81.738 21.15 71.407-.618 83.359.574 88.697 8.037 3.152 4.407-1.433 10.45-20.477 13.56-20.733 3.387-63.831 7.465-63.831 7.465-41.345 2.455-70.468 2.62-79.203 21.113-5.706 12.082 6.085 22.763 11.254 29.45 21.84 24.288 53.388 37.388 73.695 47.035 7.64 3.63 30.058 10.484 30.058 10.484-65.878-3.624-113.4 16.605-141.276 39.896-31.529 29.163-17.582 63.924 47.012 85.327 38.152 12.641 57.073 18.587 113.982 13.462 33.52-1.807 38.804-.731 39.138 2.02.47 3.871-37.231 13.49-47.524 16.46-26.185 7.553-94.828 22.804-95.171 22.878z" fill="#fff" fill-rule="evenodd"/></svg>